<svg xmlns="http://www.w3.org/2000/svg" width="128" height="128" viewBox="0 0 128 128">
  <title>TURN OFF</title>
  <path d="M89.289,38.144A7.75,7.75,0,1,0,78.329,49.1a21.81,21.81,0,1,1-30.844,0A7.749,7.749,0,1,0,36.526,38.144,37.292,37.292,0,0,0,62.9,101.817h0A37.308,37.308,0,0,0,89.289,38.144ZM86.813,88.432a33.583,33.583,0,0,1-23.906,9.885h0A33.807,33.807,0,0,1,39,40.618a4.249,4.249,0,1,1,6.009,6.01,25.309,25.309,0,1,0,35.793,0,4.249,4.249,0,1,1,6.009-6.01,33.847,33.847,0,0,1,0,47.814Z"/>
  <path d="M62.907,66.648a7.759,7.759,0,0,1-7.75-7.75V34.1a7.75,7.75,0,1,1,15.5,0V58.9A7.758,7.758,0,0,1,62.907,66.648Zm0-36.8a4.254,4.254,0,0,0-4.25,4.25V58.9a4.25,4.25,0,1,0,8.5,0V34.1A4.254,4.254,0,0,0,62.907,29.846Z"/>
</svg>
